<svg
    xmlns="http://www.w3.org/2000/svg" x="0px" y="0px"
    width="64" height="64"
    viewBox="0 0 172 172"
    style=" fill:#000000;">
        <g fill="none" fill-rule="nonzero" stroke="none" stroke-width="1" stroke-linecap="butt" stroke-linejoin="miter" stroke-miterlimit="10" stroke-dasharray="" stroke-dashoffset="0" font-family="none" font-weight="none" font-size="none" text-anchor="none" style="mix-blend-mode: normal">
            <path d="M0,172v-172h172v172z" fill="none"></path>
            <g fill="#8892b0" className="full-fill">
                <path d="M86,7.27865c-2.8174,0 -5.63491,1.02618 -7.68457,3.07943l-67.95735,67.95735c-4.24267,4.24267 -4.24267,11.13365 0,15.36915l67.95735,67.97135c2.04967,2.04967 4.78207,3.17741 7.68457,3.17741c2.9025,0 5.62774,-1.12774 7.68457,-3.17741l67.97135,-67.97135c4.24267,-4.24267 4.24267,-11.13365 0,-15.36915l-67.97135,-67.95735c-2.05325,-2.05325 -4.86718,-3.07943 -7.68457,-3.07943zM86,22.92773l63.07226,63.07227l-63.07226,63.07226l-63.07227,-63.07226zM78.83333,50.16667v43h-21.5l28.66667,28.66667l28.66667,-28.66667h-21.5v-43z"></path>
            </g>
        </g>
</svg>