<svg xmlns="http://www.w3.org/2000/svg" x="0px" y="0px" width="40" height="40" viewBox="0 0 172 172" style=" fill:#000000;">
    <g fill="none" fill-rule="nonzero" stroke="none" stroke-width="1" stroke-linecap="butt" stroke-linejoin="miter" stroke-miterlimit="10" stroke-dasharray="" stroke-dashoffset="0" font-family="none" font-weight="none" font-size="none" text-anchor="none" style="mix-blend-mode: normal">
        <path d="M0,172v-172h172v172z" fill="none"></path>
        <g fill="#8892b0" className="full-fill">
            <path d="M35.83333,21.5c-7.91917,0 -14.33333,6.41417 -14.33333,14.33333v100.33333c0,7.91917 6.41417,14.33333 14.33333,14.33333h100.33333c7.91917,0 14.33333,-6.41417 14.33333,-14.33333v-100.33333c0,-7.91917 -6.41417,-14.33333 -14.33333,-14.33333zM35.83333,35.83333h100.33333v100.33333h-100.33333zM55.75163,45.26758c-6.14183,0 -9.82617,3.69207 -9.82617,8.6084c0,4.91633 3.68479,8.5944 9.21029,8.5944c6.14183,0 9.82617,-3.67807 9.82617,-8.5944c0,-4.91633 -3.68479,-8.6084 -9.21029,-8.6084zM46.41536,71.66667v50.16667h18.08464v-50.16667zM79.42122,71.66667v50.16667h18.08464v-27.4209c0,-8.16283 5.82392,-9.33626 7.57259,-9.33626c1.74867,0 6.42481,1.75393 6.42481,9.33626v27.4209h17.49674v-27.4209c0,-15.74517 -6.99657,-22.74577 -15.74707,-22.74577c-8.7505,0 -13.4179,2.91369 -15.74707,6.99869v-6.99869z"></path>
        </g>
    </g>
</svg>