<svg xmlns="http://www.w3.org/2000/svg" x="0px" y="0px" width="40" height="40" viewBox="0 0 172 172" style=" fill:#000000;">
    <g fill="none" fill-rule="nonzero" stroke="none" stroke-width="1" stroke-linecap="butt" stroke-linejoin="miter" stroke-miterlimit="10" stroke-dasharray="" stroke-dashoffset="0" font-family="none" font-weight="none" font-size="none" text-anchor="none" style="mix-blend-mode: normal">
        <path d="M0,172v-172h172v172z" fill="none"></path>
        <g fill="#8892b0" className="full-fill">
            <path d="M86,14.33333c-39.49552,0 -71.66667,32.17115 -71.66667,71.66667c0,39.49552 32.17115,71.66667 71.66667,71.66667c39.49552,0 71.66667,-32.17115 71.66667,-71.66667c0,-39.49552 -32.17115,-71.66667 -71.66667,-71.66667zM86,28.66667c2.43286,0 4.81495,0.1982 7.16667,0.48991v6.73275l-21.55599,0.16797c-3.9345,0.02867 -7.11068,3.23217 -7.11068,7.16667v14.10938h-7.16667c-3.956,0 -7.16667,3.2035 -7.16667,7.16667v8.49642l-14.5153,-14.5153c9.71442,-17.79006 28.58388,-29.81445 50.34863,-29.81445zM107.5,32.85189c21.03487,8.48086 35.83333,29.01541 35.83333,53.14811c0,11.0072 -3.12745,21.23847 -8.46843,29.95443c-2.25235,-4.97022 -7.22816,-8.45443 -13.03157,-8.45443h-7.16667v-14.33333c0,-3.96317 -3.21067,-7.16667 -7.16667,-7.16667h-43v-14.33333h7.16667c3.956,0 7.16667,-3.2035 7.16667,-7.16667v-14.16536l14.44531,-0.11198c7.84033,-0.05017 14.22135,-6.48583 14.22135,-14.33333zM30.13639,73.23438l34.36361,34.36361v7.06868c0,7.90483 6.4285,14.33333 14.33333,14.33333v13.84343c-28.33863,-3.51516 -50.16667,-27.52707 -50.16667,-56.84343c0,-4.39802 0.53949,-8.65582 1.46973,-12.76562zM77.25163,100.33333h23.0817v14.33333c0,3.96317 3.21067,7.16667 7.16667,7.16667h14.33333v8.94434c-8.05104,6.44386 -17.8842,10.72829 -28.66667,12.06576v-21.01009c0,-3.96317 -3.21067,-7.16667 -7.16667,-7.16667h-7.16667v-10.03614c0,-1.58993 -0.62629,-3.05558 -1.5817,-4.2972z"></path>
        </g>
    </g>
</svg>